<?xml version="1.0" encoding="utf-8"?>
<!-- Generator: Adobe Illustrator 22.0.1, SVG Export Plug-In . SVG Version: 6.00 Build 0)  -->
<svg version="1.1" id="Fig_Body" xmlns="http://www.w3.org/2000/svg" xmlns:xlink="http://www.w3.org/1999/xlink" x="0px" y="0px"
	 viewBox="0 0 256 256" style="enable-background:new 0 0 256 256;" xml:space="preserve">
<style type="text/css">
	.st0{fill:#E95865;}
	.st1{fill:#F8D1B7;}
	.st2{fill:#DDBBA4;}
	.st3{fill:#C34450;}
	.st4{fill:#803038;}
</style>
<ellipse id="Background" transform="matrix(0.9353 -0.3538 0.3538 0.9353 -37.0079 53.5662)" cx="128" cy="128" rx="97.5" ry="131.6"/>
<ellipse id="Body" transform="matrix(0.9353 -0.3538 0.3538 0.9353 -37.0079 53.5662)" class="st0" cx="128" cy="128" rx="89.9" ry="121.3"/>
<ellipse id="Top" transform="matrix(0.9303 -0.3668 0.3668 0.9303 -9.5722 38.7706)" class="st1" cx="97.2" cy="44.6" rx="39.7" ry="24"/>
<ellipse id="Top_Shading" transform="matrix(0.9303 -0.3668 0.3668 0.9303 -10.6807 39.5885)" class="st2" cx="98.8" cy="47.9" rx="19.8" ry="12"/>
<path id="Body_Shading" class="st3" d="M53.6,113.4c14.7,9.5,40.1,29.6,68.9,39c33.8,11.1,70.8,8.3,84,6.6c3.7-0.4,5.6,1.8,5.1,4.8
	c-3.1,18-18.7,81.9-84.4,68.3c-58.6-12.2-77.5-79.7-83.2-110.4C42.4,112.5,46.5,108.8,53.6,113.4z"/>
<g id="Fig_Spots">
	<circle class="st4" cx="62.1" cy="75.1" r="3.8"/>
	<circle class="st4" cx="62.1" cy="75.1" r="3.8"/>
	<circle class="st4" cx="100.3" cy="88.3" r="3.8"/>
	<circle class="st4" cx="152.1" cy="83.3" r="3.8"/>
	<circle class="st4" cx="144.1" cy="42.2" r="3.8"/>
	<path class="st4" d="M195.5,63.8c-0.7,0.8-1.7,1.2-2.8,1.2c-2.1,0-3.8-1.7-3.8-3.8c0-1.6,1-2.9,2.3-3.5
		C192.6,59.7,194.1,61.7,195.5,63.8z"/>
	<circle class="st4" cx="199.4" cy="112.6" r="3.8"/>
	<circle class="st4" cx="148.3" cy="134.1" r="3.8"/>
	<circle class="st4" cx="82" cy="136.8" r="3.8"/>
	<circle class="st4" cx="39.9" cy="105.6" r="3.8"/>
	<circle class="st4" cx="65.9" cy="174.2" r="3.8"/>
	<circle class="st4" cx="131.5" cy="189.2" r="3.8"/>
	<circle class="st4" cx="114.8" cy="222.7" r="3.8"/>
	<circle class="st4" cx="177.4" cy="215.3" r="3.8"/>
	<circle class="st4" cx="193.1" cy="169.3" r="3.8"/>
</g>
</svg>
